HIERARCHY
ROOT Hips
{
  OFFSET 0 0.240689 0
  CHANNELS 6 Xposition Yposition Zposition Zrotation Xrotation Yrotation
  JOINT Bip01_Spine0
  {
    OFFSET 0 -24.7459 49.7988
    CHANNELS 6 Xposition Yposition Zposition Zrotation Xrotation Yrotation
    JOINT Bip01_Pelvis
    {
      OFFSET 0 0 0
      CHANNELS 6 Xposition Yposition Zposition Zrotation Xrotation Yrotation
      JOINT Bip01_Spine0_Tail
      {
        OFFSET -6.47486 -3.86022 0
        CHANNELS 6 Xposition Yposition Zposition Zrotation Xrotation Yrotation
        JOINT Bip01_Spine0_Tail1
        {
          OFFSET 10.3837 -0.00825882 0
          CHANNELS 6 Xposition Yposition Zposition Zrotation Xrotation Yrotation
          JOINT Bip01_Spine0_Tail2
          {
            OFFSET 10.3837 -0.00826263 0
            CHANNELS 6 Xposition Yposition Zposition Zrotation Xrotation Yrotation
            JOINT Bip01_Spine0_Tail3
            {
              OFFSET 10.3837 -0.00825882 0
              CHANNELS 6 Xposition Yposition Zposition Zrotation Xrotation Yrotation
              JOINT Bip01_Spine0_Tail4
              {
                OFFSET 10.3837 -0.00826263 0
                CHANNELS 6 Xposition Yposition Zposition Zrotation Xrotation Yrotation
                End Site
                {
                  OFFSET 0 0 0
                }
              }
            }
          }
        }
      }
      JOINT Bip01_R_Thigh
      {
        OFFSET 0 -1.52588e-005 -8.75617
        CHANNELS 6 Xposition Yposition Zposition Zrotation Xrotation Yrotation
        JOINT Bip01_R_Calf
        {
          OFFSET 19.7638 0 0
          CHANNELS 6 Xposition Yposition Zposition Zrotation Xrotation Yrotation
          JOINT Bip01_R_Foot
          {
            OFFSET 18.6534 0 0
            CHANNELS 6 Xposition Yposition Zposition Zrotation Xrotation Yrotation
            JOINT Bip01_R_Toe0
            {
              OFFSET 5.09145 13.9567 0
              CHANNELS 6 Xposition Yposition Zposition Zrotation Xrotation Yrotation
              JOINT Bip01_R_Toe01
              {
                OFFSET 4.28803 0 0
                CHANNELS 6 Xposition Yposition Zposition Zrotation Xrotation Yrotation
                JOINT Bip01_R_Toe02
                {
                  OFFSET 3.85801 0 0
                  CHANNELS 6 Xposition Yposition Zposition Zrotation Xrotation Yrotation
                  End Site
                  {
                    OFFSET 0 0 0
                  }
                }
              }
            }
          }
        }
      }
      JOINT Bip01_L_Thigh
      {
        OFFSET 0 1.52588e-005 8.75617
        CHANNELS 6 Xposition Yposition Zposition Zrotation Xrotation Yrotation
        JOINT Bip01_L_Calf
        {
          OFFSET 19.7638 0 0
          CHANNELS 6 Xposition Yposition Zposition Zrotation Xrotation Yrotation
          JOINT Bip01_L_Foot
          {
            OFFSET 18.6534 0 0
            CHANNELS 6 Xposition Yposition Zposition Zrotation Xrotation Yrotation
            JOINT Bip01_L_Toe0
            {
              OFFSET 5.09144 13.9567 0
              CHANNELS 6 Xposition Yposition Zposition Zrotation Xrotation Yrotation
              JOINT Bip01_L_Toe01
              {
                OFFSET 4.28802 0 0
                CHANNELS 6 Xposition Yposition Zposition Zrotation Xrotation Yrotation
                JOINT Bip01_L_Toe02
                {
                  OFFSET 3.85801 0 0
                  CHANNELS 6 Xposition Yposition Zposition Zrotation Xrotation Yrotation
                  End Site
                  {
                    OFFSET 0 0 0
                  }
                }
              }
            }
          }
        }
      }
      JOINT Bip01_Spine
      {
        OFFSET 9.14835 -0.00640869 -1.1e-005
        CHANNELS 6 Xposition Yposition Zposition Zrotation Xrotation Yrotation
        JOINT Bip01_Spine1
        {
          OFFSET 8.04366 -0.00638199 0
          CHANNELS 6 Xposition Yposition Zposition Zrotation Xrotation Yrotation
          JOINT Bip01_Spine2
          {
            OFFSET 8.04367 -0.00639343 0
            CHANNELS 6 Xposition Yposition Zposition Zrotation Xrotation Yrotation
            JOINT Bip01_Spine3
            {
              OFFSET 8.04304 -0.00831222 0
              CHANNELS 6 Xposition Yposition Zposition Zrotation Xrotation Yrotation
              JOINT Bip01_Neck
              {
                OFFSET 10.6685 1.06813 0
                CHANNELS 6 Xposition Yposition Zposition Zrotation Xrotation Yrotation
                JOINT Bip01_R_Clavicle
                {
                  OFFSET -3.21661 -4.89635 -9.04802
                  CHANNELS 6 Xposition Yposition Zposition Zrotation Xrotation Yrotation
                  JOINT Bip01_R_UpperArm
                  {
                    OFFSET 19.0492 0 0
                    CHANNELS 6 Xposition Yposition Zposition Zrotation Xrotation Yrotation
                    JOINT Bip01_R_Forearm
                    {
                      OFFSET 10.3706 0 0
                      CHANNELS 6 Xposition Yposition Zposition Zrotation Xrotation Yrotation
                      JOINT Bip01_R_Hand
                      {
                        OFFSET 22.8632 0 0
                        CHANNELS 6 Xposition Yposition Zposition Zrotation Xrotation Yrotation
                        JOINT Bip01_R_Finger0
                        {
                          OFFSET 6.48259 0.103651 0.504496
                          CHANNELS 6 Xposition Yposition Zposition Zrotation Xrotation Yrotation
                          JOINT Bip01_R_Finger01
                          {
                            OFFSET 3.66847 0 0
                            CHANNELS 6 Xposition Yposition Zposition Zrotation Xrotation Yrotation
                            End Site
                            {
                              OFFSET 0 0 0
                            }
                          }
                        }
                      }
                    }
                  }
                }
                JOINT Bip01_L_Clavicle
                {
                  OFFSET -3.21661 -4.89641 9.04797
                  CHANNELS 6 Xposition Yposition Zposition Zrotation Xrotation Yrotation
                  JOINT Bip01_L_UpperArm
                  {
                    OFFSET 19.0492 0 0
                    CHANNELS 6 Xposition Yposition Zposition Zrotation Xrotation Yrotation
                    JOINT Bip01_L_Forearm
                    {
                      OFFSET 10.3706 0 0
                      CHANNELS 6 Xposition Yposition Zposition Zrotation Xrotation Yrotation
                      JOINT Bip01_L_Hand
                      {
                        OFFSET 22.8631 0 0
                        CHANNELS 6 Xposition Yposition Zposition Zrotation Xrotation Yrotation
                        JOINT Bip01_L_Finger0
                        {
                          OFFSET 6.48257 0.103655 -0.504492
                          CHANNELS 6 Xposition Yposition Zposition Zrotation Xrotation Yrotation
                          JOINT Bip01_L_Finger01
                          {
                            OFFSET 3.66844 0 0
                            CHANNELS 6 Xposition Yposition Zposition Zrotation Xrotation Yrotation
                            End Site
                            {
                              OFFSET 0 0 0
                            }
                          }
                        }
                      }
                    }
                  }
                }
                JOINT Bip01_Neck1
                {
                  OFFSET 7.52459 -0.00656509 0
                  CHANNELS 6 Xposition Yposition Zposition Zrotation Xrotation Yrotation
                  JOINT Bip01_Neck2
                  {
                    OFFSET 8.4783 -0.00588226 0
                    CHANNELS 6 Xposition Yposition Zposition Zrotation Xrotation Yrotation
                    JOINT Bip01_Head
                    {
                      OFFSET 8.41606 0 0
                      CHANNELS 6 Xposition Yposition Zposition Zrotation Xrotation Yrotation
                      JOINT EyesBlue
                      {
                        OFFSET 0 0 0
                        CHANNELS 6 Xposition Yposition Zposition Zrotation Xrotation Yrotation
                        JOINT EyesBlue_2
                        {
                          OFFSET 0 -0.500007 0
                          CHANNELS 6 Xposition Yposition Zposition Zrotation Xrotation Yrotation
                          End Site
                          {
                            OFFSET 0 0 0
                          }
                        }
                      }
                      JOINT Bip01_Head2_Eyeleds
                      {
                        OFFSET 6.52751 7.61746 2.2e-005
                        CHANNELS 6 Xposition Yposition Zposition Zrotation Xrotation Yrotation
                        End Site
                        {
                          OFFSET 0 0 0
                        }
                      }
                      JOINT Bip01_Head_Muzzle
                      {
                        OFFSET 2.88628 13.9448 3.88994
                        CHANNELS 6 Xposition Yposition Zposition Zrotation Xrotation Yrotation
                        End Site
                        {
                          OFFSET 0 0 0
                        }
                      }
                      JOINT Bip01_Head1_Jaw
                      {
                        OFFSET 0.271065 1.32405 0
                        CHANNELS 6 Xposition Yposition Zposition Zrotation Xrotation Yrotation
                        JOINT _Bip01_Head11_TungeControler
                        {
                          OFFSET 4.61616 5.82872 0
                          CHANNELS 6 Xposition Yposition Zposition Zrotation Xrotation Yrotation
                          JOINT _Bip01_Ponytail3_tunge
                          {
                            OFFSET 5.17785 2.98805 0
                            CHANNELS 6 Xposition Yposition Zposition Zrotation Xrotation Yrotation
                            JOINT Bip01_Ponytail31
                            {
                              OFFSET 5.57569 0 0
                              CHANNELS 6 Xposition Yposition Zposition Zrotation Xrotation Yrotation
                              JOINT Bip01_Ponytail32
                              {
                                OFFSET 2.93165 0 0
                                CHANNELS 6 Xposition Yposition Zposition Zrotation Xrotation Yrotation
                                JOINT Bip01_Ponytail3Nub
                                {
                                  OFFSET 3.30155 0 0
                                  CHANNELS 6 Xposition Yposition Zposition Zrotation Xrotation Yrotation
                                  End Site
                                  {
                                    OFFSET 0 0 0
                                  }
                                }
                              }
                            }
                          }
                        }
                        JOINT Bip01_Head_JawNub
                        {
                          OFFSET 15.5776 -0.000389099 0
                          CHANNELS 6 Xposition Yposition Zposition Zrotation Xrotation Yrotation
                          End Site
                          {
                            OFFSET 0 0 0
                          }
                        }
                      }
                      JOINT Bip01_Ponytail2
                      {
                        OFFSET 9.40334 1.03973 -6.51764
                        CHANNELS 6 Xposition Yposition Zposition Zrotation Xrotation Yrotation
                        JOINT Bip01_Ponytail21
                        {
                          OFFSET 2.77018 -0.00640106 1.33514e-005
                          CHANNELS 6 Xposition Yposition Zposition Zrotation Xrotation Yrotation
                          End Site
                          {
                            OFFSET 0 0 0
                          }
                        }
                      }
                      JOINT Bip01_Ponytail1
                      {
                        OFFSET 9.40368 1.03969 6.51768
                        CHANNELS 6 Xposition Yposition Zposition Zrotation Xrotation Yrotation
                        JOINT Bip01_Ponytail11
                        {
                          OFFSET 2.77018 -0.00640487 0
                          CHANNELS 6 Xposition Yposition Zposition Zrotation Xrotation Yrotation
                          End Site
                          {
                            OFFSET 0 0 0
                          }
                        }
                      }
                    }
                  }
                }
              }
            }
          }
        }
      }
    }
  }
}
MOTION
Frames:	4
Frame Time:	0.0333333
0 0 -1e-006 -0 -90 -0 -0.261849 -24.7459 50.4629 90 -3.50835e-015 90 0 0 0 -90 -3.50835e-015 -90 -6.45929 -3.86079 0.44028 133.257 2.8418 -2.67083 10.3793 -0.007175 9.61409e-012 -29.7613 -1.9221e-005 7.79619e-005 10.3834 -0.00827 1.22054e-010 0.498894 1.0099e-005 9.93767e-006 10.3852 -0.008052 1.18017e-010 13.1311 -6.17895e-006 -4.42391e-005 10.3847 -0.008152 8.61338e-011 9.584 6.72822e-006 -1.86285e-005 9.38274e-006 -1.5e-005 -8.75617 -97.4887 -11.9751 173.961 19.7638 -3.55271e-015 7.10543e-015 -60.8858 0.000270848 0.00104262 18.6534 0 0 -27.4933 1.39985 7.55392 5.09143 13.9567 1.00976e-006 114.82 3.10028 1.66866 4.288 -1e-006 5.32907e-014 53.6716 8.43272 1.28952 3.85799 5.77316e-015 0 -45 -1.49467e-005 -2.35091e-006 -1.73827e-005 1.1e-005 8.75617 -110.948 -4.43258 -179.21 19.7638 2e-006 -1.77636e-014 -63.6032 4.92355e-005 0.000209349 18.6534 3e-006 -2.4869e-014 -25.4988 1.14703 -5.71865 5.09143 13.9567 -9.33812e-007 115 1.55601e-006 5.00001 4.288 3.55272e-015 1e-006 51.474 -6.03002 0.26355 3.85799 -1.59872e-014 -2e-006 -45 -1.14238e-005 -1.33058e-005 9.12717 -0.00640418 -0.622128 0.0455222 0.00290955 3.95345 8.04366 -0.006401 -1.75906e-011 -8.9421e-007 4.30013e-005 0.054077 8.04367 -0.006401 -1.7355e-011 -8.94212e-007 4.30012e-005 0.054077 8.04304 -0.008319 -2.22284e-011 -4.29873 4.89066e-005 0.054089 10.67 1.06796 1.87415e-006 0.69085 8.64356e-008 1.00984e-005 -4.3052 -3.97472 -9.04793 179.271 -85.4175 115.009 19.0492 -3.55272e-015 -1.42109e-014 89.7461 8.41607 -103.464 10.3706 1.95399e-014 -5.32907e-015 -58.5373 0.000149794 0.000510062 22.8631 3e-006 -4.15667e-013 -16.6199 -0.172726 2.45093 6.48256 0.103653 0.504498 -68.7322 -2.18866 -14.2873 3.66843 9.99998e-007 1e-006 34.6071 0.000173614 -0.000101587 -4.30489 -3.97469 9.04795 179.267 85.4166 -115.002 19.0492 4.61853e-014 7e-006 88.6321 -8.3152 99.4943 10.3706 -1e-006 -1.42109e-013 -58.5393 0.000619162 0.00221191 22.8631 -1e-006 -1.0214e-013 -16.4593 -8.55724 -2.45402 6.48255 0.103653 -0.504496 -75.9428 0.955985 15.4702 3.66843 1e-006 -2e-006 40.107 -1.19626e-005 3.77568e-006 7.52562 -0.006725 7.8695e-010 -4.48654 -1.34838e-006 1.14755e-005 8.47686 -0.006454 6.0105e-010 15.6197 -1.64482e-005 -4.32873e-005 8.41605 7.10543e-015 -1.77636e-015 -74.0229 0.197743 -0.0885731 -3e-006 1e-006 -3e-006 -23.1098 1.37701e-015 90 7.18464e-009 -0.5 5.20036e-006 96.3521 89.9999 -6.35206 0 0 0 -113.549 9.15528e-005 -180 2.8863 13.9448 3.88993 -22.989 1.37021e-015 90 0 0 0 -85.3358 -7.01671e-015 -180 0 0 0 -120.289 -7.33081e-008 -1.91372e-005 0 0 0 133.74 -2.44717e-005 4.99288e-006 0 0 0 -0.168468 1.18948e-007 1.55854e-008 0 0 0 -22.6319 4.68599e-006 1.99393e-006 0 0 0 -26.1943 8.47431e-007 4.265e-008 15.5776 -0.000396 -7.00001e-006 -9.54166e-015 0 -0 9.40334 1.03972 -6.51764 -19.0867 17.2452 20.3009 2.77017 -0.006404 1.00109e-006 2.43506 -6.00151e-007 -1.68784e-005 9.40368 1.03968 6.51767 -19.0868 -17.2453 -20.3008 2.77018 -0.006412 -1.00106e-006 2.43506 -3.70647e-007 -1.77012e-005 
0 0 -1e-006 -0 -90 -0 -0.321266 -24.6825 50.4629 90.319 -3.5083e-015 90 0 0 0 -90 -3.50835e-015 -90 -6.45929 -3.86079 0.44028 133.942 2.74162 -3.39458 10.3793 -0.007175 1.92544e-011 -29.0724 -0.0679989 -0.689818 10.3834 -0.00827 1.37636e-010 -1.57369 0.0190675 -0.693648 10.3852 -0.008052 1.42133e-010 13.7607 -0.290333 -1.54576 10.3847 -0.008152 1.17701e-010 10.2722 -0.123216 -0.679912 9e-006 -1.5e-005 -8.75617 -97.2703 -12.6929 173.655 19.7638 -5.32907e-015 7.10543e-015 -60.6357 0.000275474 0.0010413 18.6534 -7.10543e-015 3.55271e-015 -27.4791 1.18635 7.18858 5.09143 13.9567 9.6163e-007 114.814 3.1472 1.77082 4.288 -1e-006 5.68434e-014 53.6716 8.43272 1.28952 3.85799 -1.15463e-014 -3.55271e-015 -45 -1.47996e-005 -2.26698e-006 -1.7e-005 1.1e-005 8.75617 -110.961 -4.40939 -179.246 19.7638 2e-006 -3.01981e-014 -63.6221 4.92126e-005 0.000209348 18.6534 3e-006 -3.55271e-014 -25.493 1.22962 -5.39802 5.09143 13.9567 -9.3792e-007 115 1.57131e-006 5.00001 4.288 7.10543e-015 1e-006 51.474 -6.03002 0.26355 3.85799 -3.19744e-014 -2e-006 -45 -1.13796e-005 -1.32722e-005 9.12717 -0.006404 -0.622128 0.0455125 0.00307482 4.16148 8.04366 -0.006401 -1.65807e-011 -1.02139e-005 4.29624e-005 0.262105 8.04367 -0.006401 -1.56106e-011 -1.02139e-005 4.29614e-005 0.262105 8.04304 -0.008319 -1.91469e-011 -4.29866 -0.0154996 0.260936 10.67 1.06796 1.88329e-006 -1.92632 -0.312565 -0.342004 -4.17387 -4.11597 -9.046 177.409 -85.7289 110.533 19.0492 0 0 89.9329 8.31963 -103.551 10.3706 -1.77636e-015 -8.88178e-016 -58.6169 0.000149277 0.000510135 22.8631 3e-006 -4.28102e-013 -16.6631 1.82829 2.08718 6.48256 0.103653 0.504498 -68.7322 -2.18856 -14.2873 3.66843 1e-006 1e-006 34.6071 8.54909e-005 -4.10951e-005 -4.06524 -4.2145 9.04924 -174.272 85.0808 -118.878 19.0492 6.75016e-014 7e-006 89.2401 -8.09551 100.073 10.3706 -1e-006 -1.47438e-013 -58.3581 0.000626034 0.00221035 22.8631 -1e-006 -1.18128e-013 -16.7346 -8.3917 -2.14885 6.48255 0.103653 -0.504496 -75.9428 0.955986 15.4702 3.66843 1e-006 -2e-006 40.107 -1.29326e-005 4.34695e-006 7.52562 -0.006725 7.38772e-010 -5.11009 1.44514 -0.267258 8.47686 -0.006454 5.56602e-010 14.7955 -0.436031 -0.42988 8.41605 1.42109e-014 -3.55271e-015 -73.5091 0.695564 1.13984 -3e-006 1e-006 -3e-006 -23.1098 1.37701e-015 90 1.36213e-009 -0.5 5.21498e-006 101.065 90 -11.0651 0 0 0 -113.549 4.57764e-005 -180 2.8863 13.9448 3.88993 -22.989 1.37021e-015 90 0 0 0 -83.9952 -7.01671e-015 -180 0 0 0 -115.676 -2.97919e-006 -1.81065e-005 0 0 0 128.459 0.377576 -1.01684 0 0 0 0.230195 -1.44408e-007 -6.66579e-009 0 0 0 -23.0631 3.38719e-006 7.06522e-007 0 0 0 -26.1943 4.59887e-007 -7.62685e-007 15.5776 -0.000396 -7.00001e-006 6.36111e-015 -5.96354e-016 1.19271e-015 9.40334 1.03972 -6.51764 -18.0665 14.573 20.0234 2.77017 -0.006404 1.00105e-006 2.4351 -2.60193 0.00206354 9.40368 1.03968 6.51767 -19.7208 -18.8663 -20.4959 2.77018 -0.006412 -1.00126e-006 2.43506 -3.64937e-007 -1.77781e-005 
0 0 -1e-006 -0 -90 -0 -0.383766 -24.6131 50.4629 90.6702 -3.50811e-015 90 0 0 0 -90 -3.50835e-015 -90 -6.45929 -3.86079 0.44028 134.71 2.61899 -4.20543 10.3793 -0.007175 2.97913e-011 -28.3002 -0.154055 -1.4632 10.3834 -0.00827 1.55759e-010 -3.89913 0.100194 -1.46955 10.3852 -0.008052 1.71656e-010 14.4575 -0.636061 -3.27704 10.3847 -0.008152 1.55898e-010 11.0419 -0.280774 -1.43858 9e-006 -1.5e-005 -8.75617 -97.0343 -13.4383 173.351 19.7638 -3.55271e-015 0 -60.356 0.000280639 0.00103982 18.6534 2.84217e-014 7.10543e-015 -27.4656 0.970749 6.83481 5.09143 13.9567 9.0804e-007 114.808 3.19609 1.87722 4.288 -1e-006 5.68434e-014 53.6716 8.43272 1.28952 3.85799 2.22045e-015 7.10543e-015 -45 -1.46382e-005 -2.17587e-006 -1.7e-005 1.1e-005 8.75617 -110.982 -4.38661 -179.283 19.7638 2e-006 -1.95399e-014 -63.6422 4.91907e-005 0.000209345 18.6534 3e-006 -3.73035e-014 -25.4927 1.3252 -5.05025 5.09143 13.9567 -9.43146e-007 115 1.59054e-006 5.00001 4.288 1.77636e-014 1e-006 51.474 -6.03002 0.26355 3.85799 -1.59872e-014 -2e-006 -45 -1.13221e-005 -1.32288e-005 9.12717 -0.006404 -0.622128 0.0455007 0.00324463 4.37526 8.04366 -0.006401 -1.53717e-011 -1.03737e-005 4.29278e-005 0.475889 8.04367 -0.006401 -1.39704e-011 -1.03738e-005 4.29258e-005 0.475889 8.04304 -0.008319 -1.65983e-011 -4.29846 -0.0314773 0.473506 10.67 1.06796 1.89262e-006 -4.64838 -0.670524 -0.767189 -4.03282 -4.25448 -9.04563 173.987 -86.1007 104.268 19.0492 0 1.42109e-014 90.1705 8.16654 -103.675 10.3706 -1.24345e-014 1.77636e-015 -58.764 0.000148189 0.00051035 22.8631 3e-006 -4.41425e-013 -16.6674 4.08936 1.65885 6.48256 0.103653 0.504498 -68.7322 -2.18853 -14.2873 3.66843 1e-006 1e-006 34.6071 5.46368e-005 -2.02256e-005 -3.78398 -4.47141 9.04701 -167.577 84.6159 -122.762 19.0492 9.9476e-014 7e-006 89.8793 -7.8159 100.699 10.3706 -1e-006 -1.56319e-013 -58.2323 0.000630763 0.00220941 22.8631 -1e-006 -1.26121e-013 -17.011 -8.20351 -1.82138 6.48255 0.103653 -0.504496 -75.9428 0.955987 15.4702 3.66843 1e-006 -2e-006 40.107 -1.39371e-005 4.98099e-006 7.52562 -0.006725 6.20346e-010 -5.78939 2.99878 -0.571977 8.47686 -0.006454 5.34391e-010 13.9267 -0.846959 -0.937624 8.41605 1.42109e-014 2.68674e-014 -73.1619 1.17341 2.28521 -3e-006 1e-006 -3e-006 -23.1098 1.37701e-015 90 -6.51605e-009 -0.5 5.23068e-006 -118.658 90 -151.342 0 0 0 -113.549 1.52588e-005 -180 2.8863 13.9448 3.88993 -22.989 1.37021e-015 90 0 0 0 -82.6544 -1.52588e-005 -180 0 0 0 -111.063 -6.01676e-006 -1.63057e-005 0 0 0 123.192 0.754832 -2.03384 0 0 0 0.628859 -3.03879e-007 2.77598e-008 0 0 0 -23.4943 1.25792e-006 -8.8711e-007 0 0 0 -26.1943 -4.0435e-008 -1.45609e-006 15.5776 -0.000396 -7.00003e-006 -6.36111e-015 1.98785e-016 -0 9.40334 1.03972 -6.51764 -16.9622 11.6009 19.7758 2.77017 -0.006404 1.00101e-006 2.43526 -5.52257 0.00440952 9.40368 1.03968 6.51767 -20.395 -20.5542 -20.7219 2.77018 -0.006412 -1.00144e-006 2.43506 -3.57053e-007 -1.78477e-005 
0 0 -1e-006 -0 -90 -0 -0.446086 -24.5416 50.4629 91.0267 -3.50779e-015 90 0 0 0 -90 -3.50835e-015 -90 -6.45929 -3.86079 0.44028 135.483 2.4841 -5.02248 10.3793 -0.007175 4.04299e-011 -27.5216 -0.251579 -2.243 10.3834 -0.00827 1.74652e-010 -6.24487 0.245824 -2.24521 10.3852 -0.008052 2.04105e-010 15.1505 -1.0065 -5.02119 10.3847 -0.008152 1.98166e-010 11.8157 -0.460335 -2.19943 9e-006 -1.5e-005 -8.75617 -96.7947 -14.1679 173.063 19.7638 1.77636e-015 0 -60.0655 0.000285995 0.00103827 18.6534 -7.10543e-015 7.10543e-015 -27.4536 0.761657 6.50512 5.09143 13.9567 8.53562e-007 114.801 3.24377 1.98125 4.288 -1e-006 6.03961e-014 53.6716 8.43272 1.28952 3.85799 -6.21725e-015 3.55271e-015 -45 -1.44742e-005 -2.08442e-006 -1.7e-005 1.1e-005 8.75617 -111.007 -4.36544 -179.317 19.7638 2e-006 -3.19744e-014 -63.6613 4.91732e-005 0.000209342 18.6534 3e-006 -4.44089e-014 -25.4881 1.42493 -4.69939 5.09143 13.9567 -9.48453e-007 115 1.61049e-006 5.00001 4.288 7.10543e-015 1e-006 51.474 -6.03002 0.26355 3.85799 -2.30926e-014 -2e-006 -45 -1.12556e-005 -1.31778e-005 9.12717 -0.006404 -0.622128 0.0454878 0.00342138 4.59782 8.04366 -0.006401 -1.14562e-011 1.67785e-005 4.32168e-005 0.69845 8.04367 -0.006401 -1.04439e-011 1.67784e-005 4.3216e-005 0.69845 8.04304 -0.008319 -1.23337e-011 -4.29814 -0.0481089 0.694804 10.67 1.06796 1.90102e-006 -7.49301 -1.08425 -1.26143 -3.88978 -4.37673 -9.04993 168.898 -86.4964 96.3271 19.0492 1.24345e-014 -7.10543e-015 90.4091 7.99282 -103.801 10.3706 7.10543e-015 -4.44089e-015 -58.9439 0.000146798 0.000510661 22.8631 3e-006 -4.6807e-013 -16.6296 6.36821 1.22433 6.48256 0.103653 0.504498 -68.7322 -2.18851 -14.2873 3.66843 1e-006 1e-006 34.6071 4.09853e-005 -1.13502e-005 -3.4852 -4.72488 9.03776 -161.642 84.0468 -125.877 19.0492 1.24345e-013 7e-006 90.5078 -7.50544 101.323 10.3706 -1e-006 -1.66089e-013 -58.1451 0.000634005 0.00220889 22.8631 -1e-006 -1.34115e-013 -17.2759 -8.00935 -1.49277 6.48255 0.103653 -0.504496 -75.9429 0.955988 15.4702 3.66843 1e-006 -2e-006 40.107 -1.48968e-005 5.55589e-006 7.52562 -0.006725 5.15543e-010 -6.52242 4.64049 -0.892711 8.47686 -0.006454 5.36873e-010 13.0185 -1.25748 -1.50418 8.41605 -1.42109e-014 -4.44089e-016 -72.9827 1.5711 3.19898 -3e-006 1e-006 -3e-006 -23.1098 1.37701e-015 90 -1.57927e-008 -0.5 5.24661e-006 -98.7317 90 -171.268 0 0 0 -113.549 7.01671e-015 -180 2.8863 13.9448 3.88993 -22.989 1.37021e-015 90 0 0 0 -81.3138 -7.01671e-015 -180 0 0 0 -106.449 -9.14787e-006 -1.34731e-005 0 0 0 117.937 1.13137 -3.0511 0 0 0 1.02752 -1.46422e-007 1.45352e-007 0 0 0 -23.9256 -2.59345e-006 -3.22723e-006 0 0 0 -26.1943 -6.50431e-007 -2.06603e-006 15.5776 -0.000396 -7.00004e-006 -3.18055e-015 1.02809e-015 7.57867e-016 9.40334 1.03972 -6.51764 -15.8704 8.59532 19.5868 2.77017 -0.006404 1.00099e-006 2.43557 -8.47213 0.0067893 9.40368 1.03968 6.51767 -21.108 -22.297 -20.9809 2.77018 -0.006412 -1.0016e-006 2.43506 -3.45224e-007 -1.79084e-005 
